<svg version="1.1" viewBox="0.0 0.0 158.24409448818898 150.71653543307087" fill="none" stroke="none" stroke-linecap="square" stroke-miterlimit="10" xmlns:xlink="http://www.w3.org/1999/xlink" xmlns="http://www.w3.org/2000/svg"><clipPath id="p.0"><path d="m0 0l158.2441 0l0 150.71654l-158.2441 0l0 -150.71654z" clip-rule="nonzero"/></clipPath><g clip-path="url(#p.0)"><path fill="#000000" fill-opacity="0.0" d="m0 0l158.2441 0l0 150.71654l-158.2441 0z" fill-rule="evenodd"/><path fill="#7aa2f7" d="m119.937004 54.801838l0 -38.3937l38.3937 38.3937z" fill-rule="evenodd"/><path fill="#c35129" d="m119.937004 54.801838l0 38.393703l38.3937 -38.393703z" fill-rule="evenodd"/><path fill="#2bc3df" d="m54.330708 76.97507l0 -60.566933l-62.29921 60.566933z" fill-rule="evenodd"/><path fill="#2bc3df" d="m54.330708 16.408136l65.60629 0l0 126.803154l-65.60629 0z" fill-rule="evenodd"/><path fill="#2bc3df" d="m106.517235 46.295307c-8.064606 -3.5464516 -14.699913 -11.76244 -16.44796 -20.36623c-1.7480469 -8.603788 1.786972 -15.647224 8.76281 -17.459644c6.97583 -1.8124204 15.812935 2.0165615 21.905876 9.491485z" fill-rule="evenodd"/><path stroke="#2bc3df" stroke-width="1.0" stroke-linejoin="round" stroke-linecap="butt" d="m106.517235 46.295307c-8.064606 -3.5464516 -14.699913 -11.76244 -16.44796 -20.36623c-1.7480469 -8.603788 1.786972 -15.647224 8.76281 -17.459644c6.97583 -1.8124204 15.812935 2.0165615 21.905876 9.491485z" fill-rule="evenodd"/><path fill="#e06b43" d="m119.937004 54.801838l0 -38.3937l38.3937 38.3937z" fill-rule="evenodd"/><g mask="url(#mask-p.1)"><use xlink:href="#p.1" transform="matrix(1.0 0.0 0.0 -1.0 0.0 83.16372388451443)"/></g><defs><mask id="mask-p.1" maskUnits="userSpaceOnUse" x="54.25164481269713" y="43.58186194225721" width="39.34077359266296" height="32.77844379509161"><linearGradient gradientUnits="userSpaceOnUse" id="gradient-p.1" x1="54.25164481321266" y1="43.581719529047206" x2="54.251609215764205" y2="53.41529578216002"><stop offset="0%" stop-color="#ffffff" stop-opacity="1.0"/><stop offset="100%" stop-color="#ffffff" stop-opacity="0.0"/></linearGradient><rect fill="url(#gradient-p.1)" x="54.25164481269713" y="43.58186194225721" width="39.34077359266296" height="32.77844379509161"/></mask></defs><g id="p.1"><path fill="#1f2335" d="m54.751644 16.683933l0 0c5.896435 -6.5374746 15.776806 -10.251166 24.491665 -9.205577c8.714859 1.0455894 14.290749 6.6136885 13.821632 13.80232c-0.4691162 7.188631 -6.877014 14.369944 -15.884026 17.801188z" fill-rule="evenodd"/><path stroke="#1f2335" stroke-width="1.0" stroke-linejoin="round" stroke-linecap="butt" d="m54.751644 16.683933l0 0c5.896435 -6.5374746 15.776806 -10.251166 24.491665 -9.205577c8.714859 1.0455894 14.290749 6.6136885 13.821632 13.80232c-0.4691162 7.188631 -6.877014 14.369944 -15.884026 17.801188z" fill-rule="evenodd"/></g><path fill="#2bc3df" d="m114.673546 11.665573c-1.5625534 -1.3993874 -5.9575653 -4.2147856 -8.398949 -5.761155c-2.4413834 -1.5463691 -4.2799683 -2.6377952 -6.249344 -3.5170603c-1.9693832 -0.87926507 -3.6950989 -1.3678914 -5.5669327 -1.7585301c-1.8718262 -0.39063868 -3.4343796 -0.5367454 -5.6640396 -0.5853019c-2.22966 -0.048556432 -5.3377075 -0.08048993 -7.713913 0.29396325c-2.3761978 0.37445322 -4.1342926 0.94356954 -6.5433044 1.9527558c-2.4090118 1.0091865 -5.33902 2.4912512 -7.910759 4.1023626c-2.5717468 1.6111112 -5.5831184 4.018373 -7.5196877 5.564304c-1.9365692 1.5459318 -2.927822 2.5231848 -4.099739 3.7112865c-1.1719131 1.1881008 -0.9785652 1.2685909 -2.931755 3.4173222c-1.9531937 2.1487312 -6.834648 6.8057747 -8.787403 9.475067c-1.952755 2.6692905 -5.484253 4.9619427 -2.9291344 6.540682c2.5551186 1.5787392 10.854332 2.4921265 18.259842 2.9317589c7.405514 0.43963242 17.433071 1.8219604 26.17323 -0.2939644c8.740158 -2.115921 21.222221 -9.03237 26.267715 -12.401575c5.045494 -3.3692036 2.9470673 -6.4951878 4.005249 -7.813648c1.0581818 -1.3184586 2.2462845 0.4400711 2.343834 -0.097112656c0.09754944 -0.53718185 -1.3027115 -2.1657915 -1.7585297 -3.1259842c-0.45581818 -0.9601917 0.586174 -1.2357826 -0.9763794 -2.63517z" fill-rule="evenodd"/><path fill="#1f2335" d="m98.19423 141.24016l21.732277 0l0 3.1811066l-21.732277 0z" fill-rule="evenodd"/><path fill="#1f2335" d="m-7.11811 76.76509l62.55118 0l0 2.6771698l-62.55118 0z" fill-rule="evenodd"/><path fill="#2bc3df" d="m-1.0375929 76.69454c-1.7707787 0.48993683 -4.4671917 1.0634308 -5.4356956 1.7506561c-0.96850395 0.68722534 -0.6251092 1.300087 -0.37532806 2.3727036c0.24978113 1.0726166 1.499125 2.9483795 1.8740158 4.062996c0.3748908 1.1146088 -0.16622925 1.0726166 0.37532806 2.624672c0.5415573 1.5520554 1.6863518 4.2187195 2.8740158 6.68766c1.187664 2.4689407 3.230971 6.8342133 4.2519684 8.125984c1.0209975 1.2917786 0.20734906 0.8748932 1.8740158 -0.37532806c1.6666665 -1.2502136 2.6364832 -5.2821503 8.125984 -7.125984c5.489501 -1.8438339 17.644356 -3.2182846 24.811024 -3.937004c7.166668 -0.7187271 14.803589 2.1452332 18.188976 -0.37532806c3.3853912 -2.5205612 10.685913 -12.248032 2.1233597 -14.748032c-8.562553 -2.5 -43.717407 -0.4081421 -53.498688 -0.25196838c-9.781277 0.15616608 -3.4181976 0.69903564 -5.1889763 1.1889725z" fill-rule="evenodd"/><path fill="#2bc3df" d="m118.28773 140.76392c1.399826 2.7506561 1.0909882 2.47464 0.87926483 3.1259918c-0.21172333 0.6513519 -0.977684 0.40769958 -2.1496048 0.78215027c-1.1719131 0.37445068 -2.6356049 0.87882996 -4.8818893 1.4645691c-2.2462845 0.58573914 -5.1776047 1.447937 -8.595802 2.0498657c-3.4181976 0.6019287 -7.3727036 1.3337708 -11.9133835 1.561676c-4.54068 0.22792053 -11.213036 0.04988098 -15.330711 -0.19421387c-4.117668 -0.24409485 -6.2340317 -0.65179443 -9.375328 -1.27034c-3.1412926 -0.6185608 -6.41251 -1.4969482 -9.472439 -2.4409485c-3.059929 -0.9440155 -5.7782135 -1.8884583 -8.887138 -3.2230988c-3.1089249 -1.3346405 -6.7554665 -3.1246796 -9.766403 -4.784775c-3.0109367 -1.6601105 -6.557743 -3.9715729 -8.299213 -5.1758575c-1.7414703 -1.2042847 -1.791338 -1.5293121 -2.1496067 -2.0498657c-0.35826683 -0.52056885 -0.35826683 -0.48731995 0 -1.0734863c0.35826874 -0.58618164 -0.796587 -1.1736755 2.1496067 -2.443573c2.9461937 -1.2699051 8.887138 -3.9230118 15.527557 -5.1758575c6.640423 -1.2528458 13.524059 -3.2528458 24.314964 -2.3412094c10.790901 0.91163635 32.43876 4.2795334 40.430443 7.8110275c7.9916916 3.5314941 6.119858 10.627289 7.519684 13.377945z" fill-rule="evenodd"/><path fill="#2bc3df" d="m7.544838 89.98469c-1.6601048 1.1881027 -2.326334 3.497818 -3.0262465 4.979004c-0.69991255 1.4811935 -0.9125111 2.703415 -1.1732285 3.9081345c-0.2607174 1.2047272 -0.45625544 2.4252014 -0.3910761 3.3202133c0.06517935 0.8950119 0.2773404 1.2524033 0.7821522 2.0498657c0.504812 0.79746246 1.5629923 1.7747192 2.2467191 2.734909c0.68372726 0.96019745 1.2047248 2.0822372 1.8556433 3.026245c0.65091896 0.9440079 1.2200346 1.5796204 2.0498686 2.6377945c0.829834 1.0581818 1.887577 2.5070038 2.9291344 3.7112885c1.0415573 1.2042847 2.3272085 2.489067 3.3202095 3.5144348c0.99300003 1.0253754 1.8237095 1.7589722 2.6377945 2.6377945c0.8140869 0.87882996 1.3678932 1.805336 2.2467194 2.63517c0.87882805 0.829834 2.0498695 1.562561 3.026247 2.343834c0.9763775 0.7812729 1.8390198 1.7090988 2.8320217 2.343834c0.99300003 0.6347351 -0.66622925 1.1876678 3.1259842 1.4645691c3.7922115 0.27690125 14.093615 0.7987671 19.627295 0.19685364c5.533684 -0.6019287 10.856518 -2.6364899 13.574806 -3.808403c2.7182808 -1.1719208 1.9536324 -0.19554138 2.7349052 -3.2230988c0.7812805 -3.0275574 2.22966 -9.734032 1.9527588 -14.942261c-0.27690125 -5.2082214 -2.1167984 -12.726593 -3.614174 -16.307083c-1.4973755 -3.58049 -2.0008774 -3.059929 -5.370079 -5.17585c-3.3692055 -2.1159286 -10.369205 -6.689415 -14.845146 -7.5196915c-4.4759407 -0.83026886 -7.079178 1.3175888 -12.010498 2.538063c-4.93132 1.2204742 -13.492125 3.6290436 -17.577427 4.784775c-4.0853024 1.1557312 -5.2742786 0.9615021 -6.9343834 2.1496048z" fill-rule="evenodd"/><path fill="#2bc3df" d="m46.96063 32.40551l18.677166 0l0 60.566933l-18.677166 0z" fill-rule="evenodd"/><path fill="#2bc3df" d="m65.2231 23.42651l36.661415 0l0 51.464565l-36.661415 0z" fill-rule="evenodd"/><path fill="#ffffff" d="m98.60126 53.778206l0 0c-6.3404083 5.4619675 -15.865814 4.792156 -21.275597 -1.4960632q-4.8976364 -5.692913 -9.795273 -11.385826q5.740158 -4.9448814 11.480316 -9.889765l0 0c6.3404007 -5.4619656 15.865807 -4.7921543 21.275589 1.4960651l0 0c5.4097824 6.2882156 4.655365 15.813625 -1.6850357 21.275589z" fill-rule="evenodd"/><path fill="#1f2335" d="m81.07325 42.392387l0 0c0 -4.2965126 3.4618607 -7.7795258 7.732277 -7.7795258l0 0c2.0507355 0 4.0174713 0.81962585 5.467552 2.2785683c1.4500885 1.4589462 2.2647324 3.4376984 2.2647324 5.5009575l0 0c0 4.2965164 -3.4618607 7.7795296 -7.7322845 7.7795296l0 0c-4.2704163 0 -7.732277 -3.4830132 -7.732277 -7.7795296z" fill-rule="evenodd"/><path fill="#2bc3df" d="m10.532808 140.9462l109.41733 0l0 11.968506l-109.41733 0z" fill-rule="evenodd"/><path fill="#2bc3df" d="m-7.52231 75.21785l15.464567 0l0 11.968498l-15.464567 0z" fill-rule="evenodd"/><path fill="#2bc3df" d="m-7.3018374 74.53543l7.433071 0l0 3.1811066l-7.433071 0z" fill-rule="evenodd"/><path fill="#70e9ff" d="m-46.64042 150.76509l0 -111.874016l166.01575 111.874016z" fill-rule="evenodd"/></g></svg>